<svg width="116" height="112" viewBox="0 0 116 112" fill="none" xmlns="http://www.w3.org/2000/svg">
<g clip-path="url(#clip0_13_542)">
<g clip-path="url(#clip1_13_542)">
<path d="M29.2986 40.2284C24.3234 54.8004 34.601 71.4994 52.2542 77.5266C65.4942 82.047 79.1226 79.2808 87.2084 71.4676C89.9036 68.8632 91.9828 65.698 93.2266 62.055C98.2018 47.483 87.9242 30.784 70.271 24.7568C52.6178 18.7295 34.2738 25.6564 29.2986 40.2284ZM29.2986 40.2284C37.4394 32.7852 50.7836 30.3904 63.7476 34.8166C81.4008 40.8438 91.6322 57.4126 86.657 71.9846M87.2084 71.4676C87.0274 71.6424 86.8436 71.8148 86.657 71.9846M52.2542 77.5266C65.1978 81.9458 78.5128 79.401 86.657 71.9846M14.3729 26.8392C14.3729 26.8392 13.0084 29.2072 12.292 30.8008C11.5888 32.365 11.4124 32.8818 11.0536 33.9328L11.0333 33.9922C3.21514 56.891 19.3657 83.1322 47.1066 92.6036C68.8296 100.02 91.2182 94.9546 103.664 81.4122C104.982 79.977 106.19 78.4466 107.273 76.8258C109.021 74.2098 110.445 71.3582 111.492 68.291C119.31 45.3922 103.16 19.151 75.4186 9.67968C50.7494 1.257 25.2216 8.93256 14.3729 26.8392ZM11.0333 33.9922C11.0402 33.9722 11.0469 33.9524 11.0536 33.9328M107.273 76.8258C107.273 76.8258 103.213 82.9162 100.502 86.1198C84.6282 104.875 65.2418 110.968 40.537 102.533C12.796 93.062 -3.3545 66.8208 4.46368 43.922C5.6078 40.571 7.96178 36.608 10.0171 33.1114C11.8764 29.9482 14.3729 26.8392 14.3729 26.8392" stroke="#E8BF80" stroke-width="2" stroke-linejoin="round"/>
<path d="M93.227 62.0547C98.2022 47.4829 87.9246 30.7839 70.2712 24.7567C52.618 18.7294 34.274 25.6563 29.2988 40.2283C37.4396 32.7851 50.784 30.3903 63.7478 34.8165C81.401 40.8437 91.6324 57.4125 86.6572 71.9845C86.8438 71.8147 87.0276 71.6423 87.2086 71.4673C89.9038 68.8629 91.9832 65.6977 93.227 62.0547Z" stroke="#E8BF80" stroke-linejoin="round"/>
<path d="M47.1068 92.6035C19.3659 83.1321 3.21538 56.8909 11.0336 33.9921L11.0539 33.9327C11.4126 32.8817 11.589 32.3649 12.2922 30.8007C13.0086 29.2071 14.3731 26.8391 14.3731 26.8391C14.3731 26.8391 11.8767 29.9481 10.0173 33.1111C7.96202 36.6077 5.60804 40.5707 4.46392 43.9217C-3.35426 66.8205 12.7963 93.0617 40.5372 102.533C65.242 110.968 84.6284 104.875 100.502 86.1197C103.213 82.9161 107.273 76.8257 107.273 76.8257C106.19 78.4465 104.983 79.9769 103.664 81.4121C91.2184 94.9545 68.8298 100.02 47.1068 92.6035Z" stroke="#E8BF80" stroke-linejoin="round"/>
<path fill-rule="evenodd" clip-rule="evenodd" d="M111.492 68.291C119.31 45.3922 103.16 19.151 75.4185 9.67968C50.7493 1.257 25.2215 8.93256 14.3728 26.8392C14.3728 26.8392 13.0083 29.2072 12.2919 30.8008C11.5887 32.365 11.4123 32.8818 11.0536 33.9328L11.0333 33.9922C3.21508 56.891 19.3656 83.1322 47.1065 92.6036C68.8295 100.02 91.2181 94.9546 103.664 81.4122C104.982 79.977 106.19 78.4466 107.273 76.8258C109.021 74.2098 110.445 71.3582 111.492 68.291ZM70.2709 24.7568C87.9241 30.784 98.2017 47.483 93.2265 62.055C91.9827 65.698 89.9035 68.8632 87.2083 71.4676C87.0273 71.6424 86.8435 71.8148 86.6569 71.9846C78.5127 79.401 65.1977 81.9458 52.2541 77.5266C34.6009 71.4994 24.3233 54.8004 29.2985 40.2284C34.2737 25.6564 52.6177 18.7295 70.2709 24.7568Z" stroke="#E8BF80" stroke-linejoin="round"/>
</g>
</g>
<defs>
<clipPath id="clip0_13_542">
<rect width="58" height="56" fill="white" transform="scale(2)"/>
</clipPath>
<clipPath id="clip1_13_542">
<rect width="58" height="56" fill="white" transform="scale(2)"/>
</clipPath>
</defs>
</svg>
