<svg width="112" height="116" viewBox="0 0 112 116" fill="none" xmlns="http://www.w3.org/2000/svg">
<g clip-path="url(#clip0_13_494)">
<g clip-path="url(#clip1_13_494)">
<g clip-path="url(#clip2_13_494)">
<path d="M56.1118 114.224L104.608 86.1684V67.4644L88.4426 76.8164L72.2772 86.1684L56.112 95.5204L56.1118 114.224Z" fill="#050A0A"/>
<path d="M7.61599 67.4644L7.61597 86.1684L56.1119 114.224L56.1121 95.5204L23.7813 76.8164L7.61599 67.4644Z" fill="#050A0A"/>
<path d="M23.7812 39.4082V58.1122L39.9467 67.4642L56.112 76.8162V58.1122L23.7812 39.4082Z" fill="#050A0A"/>
<path d="M88.4427 39.4082L56.1121 58.1122V76.8162L88.4427 58.1122V39.4082Z" fill="#050A0A"/>
<path d="M39.9465 11.3521V30.0562L56.1119 39.4081V20.7042L39.9465 11.3521Z" fill="#050A0A"/>
<path d="M72.2773 11.3521L56.1121 20.7042V39.4081L72.2773 30.0562V11.3521Z" fill="#050A0A"/>
<path d="M56.1121 58.1121L23.7813 39.4081M56.1121 58.1121L88.4427 39.4081M56.1121 58.1121V76.8161M23.7813 58.1121V39.4081L39.9467 30.0561M88.4427 58.1121V39.4081L72.2773 30.0561M88.4427 58.1121L56.1121 76.8161L39.9467 67.4641L23.7813 58.1121M56.1121 20.7041L39.9467 11.352M56.1121 20.7041L72.2773 11.352M56.1121 20.7041V39.4081M39.9467 30.0561V11.352L56.1121 2L72.2773 11.352V30.0561M72.2773 30.0561L56.1121 39.4081L39.9467 30.0561M88.4427 58.1121L104.608 67.4641V86.1681L56.1119 114.224L7.61597 86.1681L7.61599 67.4641L23.7813 58.1121M7.61599 67.4641L23.7813 76.8161L56.1121 95.5201M56.1119 114.224L56.1121 95.5201M56.1121 95.5201L72.2773 86.1681L88.4427 76.8161L104.608 67.4641" stroke="#51E0CF" stroke-width="2" stroke-linejoin="round"/>
<path d="M7.61572 67.4644V86.1684L56.1117 114.224V95.5204L23.7811 76.8164L7.61572 67.4644Z" fill="#050A0A"/>
<path d="M23.7812 39.4082V58.1122L39.9464 67.4642L56.1119 76.8162V58.1122L23.7812 39.4082Z" fill="#050A0A"/>
<path d="M39.9463 11.3521V30.0562L56.1117 39.4081V20.7042L39.9463 11.3521Z" fill="#050A0A"/>
<path d="M7.61572 67.4644V86.1684L56.1117 114.224V95.5204L23.7811 76.8164L7.61572 67.4644Z" stroke="#51E0CF" stroke-width="0.448" stroke-linejoin="round"/>
<path d="M23.7812 39.4082V58.1122L39.9464 67.4642L56.1119 76.8162V58.1122L23.7812 39.4082Z" stroke="#51E0CF" stroke-width="0.448" stroke-linejoin="round"/>
<path d="M39.9463 11.3521V30.0562L56.1117 39.4081V20.7042L39.9463 11.3521Z" stroke="#51E0CF" stroke-width="0.448" stroke-linejoin="round"/>
<path d="M23.7813 58.1118L7.61597 67.4638L23.7813 76.8158L56.1119 95.5198L72.2773 86.1678L88.4427 76.8158L104.608 67.4638L88.4427 58.1118L56.1121 76.8158L39.9467 67.4638L23.7813 58.1118Z" fill="#050A0A"/>
<path d="M39.9467 30.0562L23.7812 39.4082L56.112 58.1122L88.4426 39.4082L72.2772 30.0562L56.112 39.4082L39.9467 30.0562Z" fill="#050A0A"/>
<path d="M56.1119 2L39.9465 11.352L56.1119 20.704L72.2771 11.352L56.1119 2Z" fill="#050A0A"/>
<path d="M23.7813 58.1118L7.61597 67.4638L23.7813 76.8158L56.1119 95.5198L72.2773 86.1678L88.4427 76.8158L104.608 67.4638L88.4427 58.1118L56.1121 76.8158L39.9467 67.4638L23.7813 58.1118Z" stroke="#51E0CF" stroke-width="0.448" stroke-linejoin="round"/>
<path d="M39.9467 30.0562L23.7812 39.4082L56.112 58.1122L88.4426 39.4082L72.2772 30.0562L56.112 39.4082L39.9467 30.0562Z" stroke="#51E0CF" stroke-width="0.448" stroke-linejoin="round"/>
<path d="M56.1119 2L39.9465 11.352L56.1119 20.704L72.2771 11.352L56.1119 2Z" stroke="#51E0CF" stroke-width="0.448" stroke-linejoin="round"/>
</g>
</g>
</g>
<defs>
<clipPath id="clip0_13_494">
<rect width="56" height="58" fill="white" transform="scale(2)"/>
</clipPath>
<clipPath id="clip1_13_494">
<rect width="56" height="58" fill="white" transform="scale(2)"/>
</clipPath>
<clipPath id="clip2_13_494">
<rect width="56" height="58" fill="white" transform="scale(2)"/>
</clipPath>
</defs>
</svg>
