<svg width="236" height="60" viewBox="0 0 236 60" fill="none" xmlns="http://www.w3.org/2000/svg">
<g clip-path="url(#clip0_13_329)">
<g clip-path="url(#clip1_13_329)">
<g clip-path="url(#clip2_13_329)">
<mask id="mask0_13_329" style="mask-type:luminance" maskUnits="userSpaceOnUse" x="0" y="0" width="235" height="60">
<path d="M234.873 0H0.872559V60H234.873V0Z" fill="white"/>
</mask>
<g mask="url(#mask0_13_329)">
<path d="M71.6499 19.7646V33.3518C71.6499 36.986 68.6573 39.9332 64.9675 39.9332C61.2775 39.9332 58.2851 36.986 58.2851 33.3518V19.7646H53.2451V33.1492C53.2451 39.5248 58.4939 44.6944 64.9675 44.6944C71.4409 44.6944 76.6899 39.5248 76.6899 33.1492V19.7646H71.6499Z" fill="white" fill-opacity="0.64"/>
<path d="M24.3612 4.05469V35.6798C24.3612 43.6478 17.8042 50.1058 9.71389 50.1058C8.66605 50.1058 7.64713 49.995 6.66357 49.7892C10.4146 53.6164 15.6763 56.0002 21.5038 56.0002C32.8982 56.0002 42.1328 46.9022 42.1328 35.683V4.05469H24.3612Z" fill="white" fill-opacity="0.64"/>
<path d="M9.71496 44.4318C4.8293 44.4318 0.872559 40.5316 0.872559 35.7198V9.65039H18.5605V35.7198C18.5605 40.5316 14.6006 44.4318 9.71496 44.4318Z" fill="white" fill-opacity="0.64"/>
<path d="M105.969 31.8452C105.969 39.4872 100.235 44.5966 93.8095 44.5966C90.1035 44.5966 87.0404 43.3304 84.9126 41.1396V52.609H79.7729V19.7746H84.9126V22.5476C87.0372 20.357 90.1003 19.0908 93.8095 19.0908C100.235 19.0908 105.969 24.2508 105.969 31.8422M100.977 31.8422C100.977 26.7802 97.4674 23.567 92.9706 23.567C88.9174 23.567 84.9157 26.7802 84.9157 31.8422C84.9157 36.904 88.9174 40.1172 92.9706 40.1172C97.4674 40.1172 100.977 36.9548 100.977 31.8422Z" fill="white" fill-opacity="0.64"/>
<path d="M153.618 19.6764L153.272 24.5452C152.877 24.4978 152.285 24.4978 151.838 24.4978C145.612 24.4978 142.546 28.7808 142.546 35.4004V43.9192H137.406V19.7746H142.546V24.9346C144.522 21.7214 147.637 19.4834 151.886 19.4834C152.481 19.4834 152.973 19.4834 153.616 19.6796" fill="white" fill-opacity="0.64"/>
<path d="M179.843 43.9156H174.704V41.1424C172.579 43.333 169.513 44.5994 165.807 44.5994C159.381 44.5994 153.65 39.49 153.65 31.848C153.65 24.2062 159.381 19.0967 165.807 19.0967C169.513 19.0967 172.579 20.363 174.704 22.5536V19.7805H179.843V43.9156ZM174.704 31.845C174.704 26.783 170.702 23.5698 166.649 23.5698C162.152 23.5698 158.642 26.783 158.642 31.845C158.642 36.9068 162.152 40.12 166.649 40.12C170.702 40.12 174.704 36.9574 174.704 31.845Z" fill="white" fill-opacity="0.64"/>
<path d="M229.052 37.0156C227.32 39.5892 224.852 40.2192 222.418 40.2192C218.812 40.2192 215.498 37.5412 215.006 33.0648H234.874V31.3112C234.626 24.0586 229.19 19.0947 222.618 19.0947C215.696 19.0947 209.916 24.2042 209.916 31.8968C209.916 39.5892 215.746 44.6006 222.418 44.6006C227.85 44.6006 232.2 42.0712 234.228 37.0156H229.056H229.052ZM222.614 23.5742C225.972 23.5742 228.792 25.5212 229.582 29.4622H215.15C215.94 25.5686 219.4 23.5742 222.614 23.5742Z" fill="white" fill-opacity="0.64"/>
<path d="M202.902 4V21.8512C200.68 20.221 197.882 19.3029 194.861 19.3029C187.674 19.3029 181.808 24.4312 181.808 31.9562C181.808 39.481 187.674 44.6568 194.861 44.6568C202.05 44.6568 207.574 39.7626 207.89 32.5734H207.904V4H202.902ZM194.861 40.2564C190.608 40.2564 186.793 36.9832 186.793 31.9528C186.793 26.9226 190.605 23.6494 194.861 23.6494C199.117 23.6494 202.88 26.9226 202.88 31.9528C202.88 36.9832 199.017 40.2564 194.861 40.2564Z" fill="white" fill-opacity="0.64"/>
<path d="M129.159 19.7746V22.5476C127.034 20.357 123.967 19.0908 120.261 19.0908C113.836 19.0908 108.105 24.2508 108.105 31.8422C108.105 39.4334 113.839 44.5934 120.261 44.5934C123.967 44.5934 127.034 43.3272 129.159 41.1366V41.7286C129.159 46.2048 126.243 50.0258 121.595 50.0258C116.947 50.0258 115.25 48.1168 113.421 45.293L109.471 47.87C111.448 51.4724 114.434 54.6034 121.595 54.6034C129.255 54.6034 134.298 48.864 134.298 41.8298V19.7746H129.159ZM121.104 40.1204C116.607 40.1204 113.097 36.9578 113.097 31.8452C113.097 26.7328 116.607 23.5702 121.104 23.5702C125.157 23.5702 129.159 26.7834 129.159 31.8452C129.159 36.9072 125.154 40.1204 121.104 40.1204Z" fill="white" fill-opacity="0.64"/>
</g>
</g>
</g>
</g>
<defs>
<clipPath id="clip0_13_329">
<rect width="118" height="30" fill="white" transform="scale(2)"/>
</clipPath>
<clipPath id="clip1_13_329">
<rect width="118" height="30" fill="white" transform="scale(2)"/>
</clipPath>
<clipPath id="clip2_13_329">
<rect width="118" height="30" fill="white" transform="scale(2)"/>
</clipPath>
</defs>
</svg>
