<svg width="176" height="60" viewBox="0 0 176 60" fill="none" xmlns="http://www.w3.org/2000/svg">
<g clip-path="url(#clip0_13_277)">
<mask id="mask0_13_277" style="mask-type:luminance" maskUnits="userSpaceOnUse" x="0" y="0" width="175" height="60">
<path d="M174.618 0H0.618164V60H174.618V0Z" fill="white"/>
</mask>
<g mask="url(#mask0_13_277)">
<mask id="mask1_13_277" style="mask-type:luminance" maskUnits="userSpaceOnUse" x="1" y="0" width="173" height="60">
<path d="M173.064 0H1.60352V60H173.064V0Z" fill="white"/>
</mask>
<g mask="url(#mask1_13_277)">
<path d="M113.786 49.926C113.584 49.9452 113.446 49.969 113.307 49.969C111.182 49.969 109.057 49.9596 106.931 49.95C106.539 49.95 106.486 49.8972 106.429 49.5192C106.142 47.5472 105.864 45.5704 105.567 43.5984C105.261 41.5404 104.936 39.487 104.624 37.429C104.385 35.8254 104.155 34.222 103.916 32.6186C103.696 31.1158 103.471 29.608 103.241 28.1052C103.126 27.3394 103.002 26.5736 102.882 25.8078C102.868 25.7264 102.834 25.6498 102.791 25.5158C102.7 25.6162 102.614 25.669 102.586 25.7454C102.207 26.6406 101.829 27.5404 101.461 28.4402C101.078 29.3688 100.709 30.2972 100.326 31.2258C99.8429 32.408 99.3595 33.5854 98.8761 34.763C98.3925 35.9404 97.8995 37.1178 97.4161 38.3C96.9375 39.4678 96.4733 40.6406 95.9947 41.8084C95.7123 42.4976 95.4203 43.182 95.1379 43.8714C94.6497 45.0632 94.1663 46.2596 93.6781 47.4514C93.3813 48.179 93.0749 48.9066 92.7783 49.6388C92.6921 49.8542 92.5485 49.9548 92.3235 49.9548C91.8067 49.9548 91.2897 49.95 90.7727 49.9548C90.4713 49.9548 90.2941 49.8064 90.1937 49.5336C89.9831 48.9688 89.7629 48.4088 89.5427 47.8488C89.1407 46.8196 88.7385 45.7954 88.3413 44.7664C87.9727 43.8186 87.6089 42.8662 87.2405 41.9184C86.8289 40.8654 86.4125 39.8126 86.0007 38.7596C85.6371 37.8262 85.2829 36.888 84.9191 35.95C84.5219 34.9208 84.1149 33.8966 83.7129 32.8676C83.3349 31.8912 82.9615 30.9148 82.5785 29.9384C82.0951 28.6986 81.6069 27.4542 81.1187 26.2146C81.0183 25.9514 80.9225 25.6832 80.8173 25.4008C80.6067 25.4918 80.5875 25.6498 80.5635 25.7982C80.3625 27.1336 80.1711 28.4642 79.9749 29.7996C79.8503 30.6372 79.7115 31.47 79.5871 32.3076C79.4579 33.1738 79.3335 34.0402 79.2089 34.9018C79.1085 35.5958 79.0127 36.2946 78.9075 36.9886C78.7735 37.8548 78.6203 38.7164 78.4911 39.578C78.2901 40.9516 78.1033 42.3348 77.9023 43.7086C77.7587 44.685 77.5817 45.6614 77.4381 46.6378C77.2849 47.6572 77.1557 48.6816 77.0121 49.7058C77.0025 49.7632 76.9785 49.816 76.9499 49.9116C76.7919 49.926 76.6291 49.9596 76.4617 49.9548C74.3365 49.9548 72.2113 49.9452 70.0863 49.9356C69.9619 49.9356 69.8373 49.9116 69.6699 49.8926C69.6843 49.7202 69.6891 49.5814 69.7129 49.4426C70.0145 47.7052 70.3161 45.963 70.6127 44.2254C70.9047 42.512 71.1823 40.7984 71.4743 39.0898C71.7949 37.2088 72.1253 35.3278 72.4459 33.4466C72.7187 31.848 72.9819 30.2494 73.2549 28.6508C73.4989 27.2196 73.7479 25.7934 73.9919 24.367C74.4323 21.7776 74.8725 19.1882 75.3081 16.5988C75.3799 16.1584 75.4279 15.7181 75.4949 15.2778C75.5619 14.8422 75.6337 14.7704 76.0787 14.7704C78.3331 14.7704 80.5875 14.7704 82.8419 14.7704C82.9137 14.7704 82.9855 14.78 83.0573 14.7752C83.3683 14.7561 83.5263 14.9188 83.6267 15.1916C83.8709 15.8665 84.1197 16.5366 84.3735 17.2114C85.4695 20.1264 86.5703 23.0412 87.6617 25.956C88.7337 28.8184 89.8011 31.6806 90.8733 34.5428C91.1125 35.189 91.3615 35.8302 91.6103 36.4716C91.6343 36.5338 91.6773 36.5866 91.7301 36.6678C91.9645 36.462 92.0267 36.1892 92.1177 35.9452C92.7687 34.1982 93.4101 32.4464 94.0609 30.6994C94.7359 28.8854 95.4059 27.0714 96.0855 25.2526C96.6935 23.6252 97.3013 22.0026 97.9091 20.3752C98.5457 18.6665 99.1823 16.9626 99.8189 15.2538C100.001 14.7656 100.006 14.7656 100.532 14.7656C102.6 14.7656 104.668 14.7656 106.735 14.7656C107.008 14.7656 107.281 14.7752 107.554 14.7848C107.75 14.7943 107.865 14.8853 107.898 15.0911C108.066 16.0962 108.243 17.0966 108.415 18.1017C108.655 19.5184 108.894 20.9304 109.133 22.3472C109.334 23.5486 109.53 24.7548 109.736 25.956C109.961 27.2866 110.196 28.6126 110.421 29.9432C110.617 31.087 110.808 32.2358 111.005 33.3796C111.239 34.7534 111.474 36.1222 111.708 37.496C111.919 38.7404 112.125 39.9848 112.335 41.2292C112.56 42.5598 112.8 43.8856 113.02 45.2162C113.24 46.5182 113.446 47.82 113.656 49.1266C113.695 49.366 113.728 49.6054 113.776 49.9164L113.786 49.926Z" fill="white" fill-opacity="0.64"/>
<path d="M142.81 14.8138C143.001 14.7995 143.102 14.7851 143.202 14.7851C145.298 14.7851 147.395 14.7851 149.491 14.7851C150.19 14.7851 150.2 14.7947 150.2 15.5078C150.2 21.0362 150.19 26.5644 150.2 32.0926C150.204 33.9018 150.219 35.711 150.334 37.5154C150.439 39.1044 150.831 40.6362 151.779 41.9668C152.995 43.6706 154.689 44.5274 156.747 44.6614C157.561 44.714 158.384 44.7092 159.203 44.6614C162.166 44.4796 164.267 42.498 165.061 40.0714C165.459 38.8508 165.612 37.6112 165.626 36.3428C165.66 33.0258 165.693 29.709 165.703 26.392C165.712 22.673 165.703 18.954 165.703 15.235C165.703 15.1106 165.717 14.9813 165.722 14.8665C166.076 14.7564 172.533 14.7468 173.04 14.8665C173.05 15.034 173.069 15.2159 173.069 15.3977C173.069 21.1414 173.069 26.885 173.064 32.6286C173.064 34.122 173.064 35.6152 173.04 37.1086C173.026 38.2142 172.877 39.315 172.643 40.392C172.461 41.2296 172.269 42.072 172.006 42.8904C171.422 44.7092 170.513 46.3366 169.077 47.629C168.139 48.4714 167.076 49.1174 165.918 49.6056C164.262 50.2998 162.524 50.6826 160.744 50.831C159.332 50.9458 157.915 51.0176 156.489 50.9268C155.091 50.8358 153.718 50.6922 152.358 50.3668C150.496 49.9216 148.754 49.2036 147.251 47.988C146.131 47.0832 145.26 45.9728 144.614 44.6854C143.762 42.9862 143.322 41.1722 143.054 39.296C142.881 38.1138 142.814 36.9268 142.814 35.735C142.814 29.1442 142.814 22.5534 142.814 15.9625C142.814 15.594 142.814 15.2254 142.814 14.8234L142.81 14.8138Z" fill="white" fill-opacity="0.64"/>
<path d="M139.794 23.2614C139.674 23.204 139.607 23.18 139.554 23.1416C138.023 21.9498 136.281 21.2606 134.366 20.9974C132.858 20.7868 131.355 20.8204 129.881 21.2128C126.828 22.0264 124.454 23.7496 122.893 26.5352C122.357 27.4924 121.974 28.512 121.716 29.5698C121.634 29.9 121.611 30.2494 121.582 30.594C121.467 31.872 121.467 33.1498 121.615 34.4182C121.802 35.9882 122.41 37.4098 123.252 38.7308C124.674 40.9564 126.684 42.4402 129.168 43.2968C129.915 43.5554 130.69 43.7086 131.485 43.7516C131.571 43.7516 131.657 43.7564 131.743 43.766C133.208 43.943 134.639 43.7324 136.032 43.3256C137.209 42.9858 138.296 42.421 139.306 41.727C139.411 41.6552 139.521 41.5834 139.631 41.5212C139.665 41.502 139.712 41.5068 139.813 41.4876C139.822 41.6456 139.846 41.794 139.846 41.9424C139.846 44.0244 139.851 46.1064 139.856 48.1886C139.856 48.4758 139.846 48.7628 139.856 49.05C139.866 49.3228 139.741 49.4616 139.487 49.5526C137.683 50.1892 135.835 50.6678 133.931 50.8592C130.724 51.1848 127.641 50.6966 124.683 49.4042C121.242 47.8966 118.533 45.5416 116.508 42.3922C115.479 40.7888 114.685 39.0754 114.201 37.2326C113.823 35.7728 113.555 34.289 113.598 32.767C113.608 32.408 113.603 32.049 113.598 31.69C113.56 30.1824 113.823 28.713 114.206 27.2674C114.656 25.578 115.364 23.9984 116.283 22.5146C118.385 19.1165 121.314 16.7042 124.98 15.163C126.335 14.5934 127.742 14.2009 129.197 13.976C132.351 13.4925 135.433 13.8036 138.454 14.8088C138.712 14.8949 138.975 14.9715 139.229 15.0672C139.818 15.2826 139.842 15.3209 139.856 15.9336C139.856 16.1202 139.861 16.3069 139.861 16.4936C139.861 18.5756 139.856 20.6576 139.846 22.7396C139.846 22.9024 139.813 23.0652 139.794 23.271V23.2614Z" fill="white" fill-opacity="0.64"/>
<path d="M67.1234 49.9358C66.8936 49.9454 66.6638 49.9646 66.439 49.9646C60.48 49.9646 54.5258 49.955 48.5668 49.9502C48.5236 49.9502 48.4806 49.9502 48.4376 49.9502C48.0354 49.9406 48.002 49.912 48.002 49.4956C48.002 47.6576 48.002 45.8196 48.002 43.9816C48.002 34.4952 48.0068 25.004 48.0116 15.5175C48.0116 15.3021 48.0116 15.0915 48.0116 14.8282C48.16 14.8091 48.2796 14.7852 48.404 14.7852C50.5436 14.7852 52.683 14.7852 54.8226 14.7852C55.4016 14.7852 55.3968 14.7947 55.3968 15.3547C55.392 22.405 55.3826 29.4504 55.3778 36.5006C55.3778 38.8412 55.3968 41.1816 55.4064 43.5222C55.4064 43.9578 55.4352 43.9864 55.9186 43.9864C59.4222 43.9864 62.9258 43.977 66.4246 43.977C66.8554 43.977 67.286 43.9864 67.7168 44.0152C67.9706 44.0296 68.0184 44.1014 67.9802 44.3502C67.7216 46.1546 67.4584 47.9544 67.1952 49.754C67.1904 49.7922 67.1616 49.8306 67.1186 49.931L67.1234 49.9358Z" fill="white" fill-opacity="0.64"/>
<path d="M6.45674 47.8248C6.60512 47.8106 6.7535 47.8154 6.8923 47.7866C7.43794 47.667 7.99316 47.6526 8.54838 47.619C9.78324 47.5426 11.0133 47.5808 12.2386 47.6956C13.8133 47.844 15.3689 48.1264 16.8814 48.5908C18.1689 48.988 19.4468 49.4332 20.7248 49.859C22.3186 50.3904 23.9268 50.8594 25.5878 51.1322C25.8796 51.1802 26.1764 51.204 26.4732 51.2376C26.8992 51.2806 27.3204 51.3284 27.7464 51.3572C27.9808 51.3716 28.225 51.3572 28.4596 51.3428C28.8664 51.3094 29.2684 51.2566 29.6752 51.2232C30.5512 51.1562 31.3984 50.936 32.2408 50.7206C32.6428 50.6202 33.0448 50.5004 33.4468 50.3952C33.509 50.3808 33.5714 50.3856 33.6384 50.3856L33.6958 50.467C33.6478 50.486 33.5952 50.4908 33.557 50.5196C33.0304 50.9456 32.4562 51.2998 31.8196 51.5438C30.4172 52.08 28.9572 52.372 27.464 52.439C26.0376 52.5012 24.6018 52.5346 23.1802 52.3384C21.9692 52.1756 20.7678 51.9698 19.5617 51.788C18.346 51.6014 17.135 51.386 15.9145 51.2328C13.9521 50.9886 11.9802 50.8642 9.99862 51.0222C9.19452 51.0844 8.40956 51.2566 7.63896 51.5008C6.56684 51.8406 5.5952 52.3672 4.72888 53.085C4.70016 53.109 4.66188 53.1234 4.59008 53.1568C4.54222 53.0898 4.48478 53.0276 4.4465 52.951C4.0205 52.099 3.6759 51.2088 3.37436 50.3042C2.94838 49.0214 2.60376 47.7148 2.3453 46.389C2.16342 45.4652 2.04376 44.5272 1.90974 43.5938C1.73265 42.3542 1.64171 41.1048 1.6082 39.8556C1.5747 38.5442 1.56991 37.2328 1.67521 35.926C1.7853 34.5284 1.8906 33.1356 2.12512 31.7524C2.32136 30.5894 2.53196 29.4262 2.77128 28.268C3.10154 26.6646 3.54666 25.085 4.0253 23.52C4.70016 21.323 5.49948 19.1787 6.40888 17.0728C7.2465 15.1199 8.16068 13.2054 9.1658 11.3292C10.1422 9.5008 11.1808 7.70114 12.2769 5.93976C13.3921 4.15446 14.56 2.40268 15.7949 0.698744C15.9193 0.531222 16.0342 0.358914 16.1586 0.191393C16.2017 0.133957 16.2448 0.0860936 16.2974 0.0382302C16.3884 -0.038351 16.4793 -0.0287782 16.5655 0.0525892C16.642 0.124384 16.642 0.205752 16.5846 0.291906C16.441 0.50729 16.2974 0.722674 16.1586 0.93806C15.2157 2.41224 14.3111 3.90558 13.5214 5.46114C13.0427 6.40882 12.5641 7.35174 12.1046 8.309C11.6978 9.15618 11.3101 10.0177 10.9367 10.8793C10.6496 11.5446 10.3959 12.2194 10.1326 12.8943C9.8646 13.5883 9.59658 14.2823 9.34768 14.9811C9.1323 15.5794 8.93128 16.1825 8.73982 16.7856C8.51966 17.4748 8.30906 18.1688 8.10324 18.8628C7.9453 19.3941 7.8017 19.9302 7.6629 20.471C7.50496 21.0836 7.347 21.7012 7.20342 22.3186C7.04546 23.0126 6.90188 23.7162 6.7535 24.415C6.65778 24.8696 6.57162 25.3292 6.48546 25.7886C6.4041 26.2386 6.31794 26.6884 6.25094 27.1384C6.1265 27.9808 5.99248 28.828 5.90154 29.6752C5.7723 30.867 5.69572 32.0684 5.5952 33.2648C5.42768 35.2704 5.46598 37.271 5.49948 39.2766C5.50906 39.8126 5.5617 40.3438 5.59042 40.88C5.62872 41.5118 5.64786 42.1532 5.71486 42.7802C5.85366 43.9814 6.0164 45.1828 6.17914 46.3842C6.23658 46.8054 6.31316 47.2266 6.38016 47.6478C6.38974 47.6956 6.4041 47.7388 6.42802 47.8202L6.45674 47.8248Z" fill="white" fill-opacity="0.64"/>
<path d="M21.553 27.306C21.261 26.9566 14.9861 14.9908 14.9048 14.6079C16.0679 15.9768 17.1879 17.3839 18.3318 18.772C19.4709 20.1554 20.591 21.553 21.7828 22.9314C21.8784 22.826 21.9408 22.7638 21.9886 22.6968C23.8408 20.0836 25.9038 17.6424 27.9954 15.2253C28.1964 14.9908 28.3926 14.7563 28.5938 14.5217C28.7996 14.2776 28.8522 14.2681 29.1058 14.4595C29.9578 15.1009 30.714 15.8475 31.4176 16.6421C33.2604 18.7385 34.701 21.0934 35.888 23.611C36.831 25.6166 37.5776 27.6986 38.1902 29.8284C38.621 31.317 38.9848 32.82 39.272 34.342C39.5114 35.62 39.7124 36.9026 39.8846 38.1902C40.0378 39.3006 40.1144 40.4206 40.2484 41.5358C40.3442 42.3448 40.3394 43.1632 40.3968 43.972C40.5212 45.6282 40.5548 47.2842 40.5308 48.9402C40.5164 50.0124 40.4638 51.0846 40.4256 52.1566C40.392 53.0278 40.3584 53.9036 40.3106 54.7748C40.2914 55.1194 40.234 55.464 40.1958 55.8086C40.1814 55.9284 40.124 55.9906 40.009 55.9954C39.9182 55.9954 39.832 56 39.741 55.9954C39.6358 55.9906 39.5784 55.9284 39.5736 55.823C39.5688 55.7416 39.5592 55.665 39.5592 55.5836C39.5352 54.8992 39.5256 54.2148 39.4874 53.5304C39.4444 52.7454 39.3868 51.9652 39.3198 51.185C39.2146 49.9884 39.1092 48.7918 38.9752 47.6C38.822 46.26 38.6498 44.9198 38.4678 43.5844C38.3244 42.5314 38.1808 41.4784 37.9844 40.435C37.6686 38.7502 37.3288 37.0654 36.9602 35.3902C36.6348 33.9256 36.2278 32.4848 35.7828 31.0538C35.3902 29.795 34.9548 28.5506 34.4522 27.33C33.6816 25.4538 32.7722 23.6494 31.5996 21.9884C30.6996 20.7154 29.6706 19.5665 28.4118 18.638C28.1294 18.4274 28.0864 18.4322 27.847 18.7002C26.4494 20.251 25.1572 21.8832 23.9654 23.5966C23.1804 24.7214 22.4432 25.8702 21.7492 27.0524C21.7014 27.1338 21.6344 27.2056 21.5578 27.3012L21.553 27.306Z" fill="white" fill-opacity="0.64"/>
</g>
</g>
</g>
<defs>
<clipPath id="clip0_13_277">
<rect width="88" height="30" fill="white" transform="scale(2)"/>
</clipPath>
</defs>
</svg>
