<svg width="166" height="60" viewBox="0 0 166 60" fill="none" xmlns="http://www.w3.org/2000/svg">
<g clip-path="url(#clip0_13_260)">
<mask id="mask0_13_260" style="mask-type:luminance" maskUnits="userSpaceOnUse" x="1" y="0" width="165" height="60">
<path d="M165.746 0H1.74561V60H165.746V0Z" fill="white"/>
</mask>
<g mask="url(#mask0_13_260)">
<mask id="mask1_13_260" style="mask-type:luminance" maskUnits="userSpaceOnUse" x="1" y="0" width="165" height="60">
<path d="M165.382 0H1.74561V60H165.382V0Z" fill="white"/>
</mask>
<g mask="url(#mask1_13_260)">
<path d="M74.6934 17.1699C66.4968 17.1699 60.396 23.4204 60.396 31.7294C60.396 40.001 66.5716 46.289 74.6934 46.289C80.3828 46.289 85.1734 43.2574 87.569 38.3918L80.495 36.5204C79.3348 38.429 77.2388 39.627 74.6934 39.627C71.063 39.627 68.5928 37.5684 67.9564 33.788H88.8414C88.9164 33.077 88.991 32.3284 88.991 31.6172C88.991 23.7198 83.1898 17.1699 74.6934 17.1699ZM68.1436 28.7352C69.0044 25.479 71.3624 23.5328 74.6934 23.5328C78.0248 23.5328 80.4574 25.3668 81.5054 28.7352H68.1436Z" fill="white" fill-opacity="0.64"/>
<path d="M32.1382 45.5406H39.5864V31.0558C39.5864 26.5644 42.0568 23.8696 45.7622 23.8696C49.1308 23.8696 50.5904 25.9282 50.5904 30.0452V45.5406H58.0386V28.7728C58.0386 21.7362 54.146 17.2822 47.8954 17.2822C44.6018 17.2822 41.645 18.5173 39.549 20.501V8H32.1382" fill="white" fill-opacity="0.64"/>
<path d="M145.582 17.9559H136.973L128.702 30.195V8H121.253V45.5406H128.702V32.3284L137.535 45.5406H146.555L136.225 31.0932L145.582 17.9559Z" fill="white" fill-opacity="0.64"/>
<path d="M162.911 17.8066C159.355 17.8066 156.885 18.8921 154.901 21.3248L153.591 17.9564H148.8V45.541H156.286V31.206C156.286 26.7146 157.933 24.8432 162.162 24.8432H165.381V17.8066H162.911Z" fill="white" fill-opacity="0.64"/>
<path d="M16.4175 39.3274C12.4127 39.3274 9.34354 35.9964 9.34354 31.7294C9.34354 27.4628 12.3752 24.2064 16.4175 24.2064C19.2246 24.2064 21.7324 25.6662 22.9674 28.3236L29.7794 25.9656C27.646 20.5758 22.6306 17.1699 16.4923 17.1699C8.07098 17.1699 1.74561 23.383 1.74561 31.6548C1.74561 39.9264 8.1084 46.3266 16.3801 46.3266C22.6306 46.3266 27.7956 42.771 29.8542 37.194L22.93 34.7988C21.882 37.6058 19.2995 39.3274 16.4175 39.3274Z" fill="white" fill-opacity="0.64"/>
<path d="M105.497 39.3274C101.492 39.3274 98.4234 35.9964 98.4234 31.7294C98.4234 27.4628 101.455 24.2064 105.497 24.2064C108.304 24.2064 110.812 25.6662 112.047 28.3236L118.859 25.9656C116.726 20.5758 111.71 17.1699 105.572 17.1699C97.1882 17.1699 90.8628 23.383 90.8628 31.6548C90.8628 39.9264 97.2258 46.3266 105.497 46.3266C111.748 46.3266 116.913 42.771 118.972 37.194L112.047 34.7988C110.999 37.6058 108.379 39.3274 105.497 39.3274Z" fill="white" fill-opacity="0.64"/>
</g>
</g>
</g>
<defs>
<clipPath id="clip0_13_260">
<rect width="83" height="30" fill="white" transform="scale(2)"/>
</clipPath>
</defs>
</svg>
