<svg width="174" height="60" viewBox="0 0 174 60" fill="none" xmlns="http://www.w3.org/2000/svg">
<g clip-path="url(#clip0_13_294)">
<mask id="mask0_13_294" style="mask-type:luminance" maskUnits="userSpaceOnUse" x="1" y="0" width="173" height="60">
<path d="M173.491 0H1.49121V60H173.491V0Z" fill="white"/>
</mask>
<g mask="url(#mask0_13_294)">
<mask id="mask1_13_294" style="mask-type:alpha" maskUnits="userSpaceOnUse" x="147" y="14" width="27" height="33">
<path d="M147.788 14.2021H173.244V46.0356H147.788V14.2021Z" fill="white"/>
</mask>
<g mask="url(#mask1_13_294)">
<path fill-rule="evenodd" clip-rule="evenodd" d="M165.169 27.6982L159.784 25.8222C156.332 24.552 154.928 23.1594 154.928 20.3754C154.928 17.5314 156.567 15.3525 160.077 15.3525C161.481 15.3525 162.887 15.8977 163.529 16.8664L170.837 26.2362H172.074V17.5917L168.095 15.8374C165.578 14.8688 162.652 14.2021 159.784 14.2021C153.991 14.2021 147.788 16.6838 147.788 23.4622C147.788 28.4248 151.006 31.0276 155.923 32.7822L161.365 34.658C163.706 35.5048 165.813 37.019 165.813 40.1654C165.813 42.828 164.29 44.765 160.37 44.765C159.317 44.765 157.678 44.4622 156.449 42.9498L149.138 33.3932H147.963V42.474L151.826 44.2198C154.459 45.37 157.209 46.036 160.779 46.036C166.397 46.036 173.244 44.2198 173.244 36.8976C173.244 31.8136 169.851 29.4538 165.169 27.6982Z" fill="white" fill-opacity="0.64"/>
</g>
<path fill-rule="evenodd" clip-rule="evenodd" d="M111.86 26.6688L99.629 45.2482H96.7616L86.7412 14.9893H96.5454L103.374 37.1384H103.726L110.573 26.729C112.153 24.1878 112.035 23.401 111.743 22.8562L107.822 16.1992V14.9893H115.489C116.073 17.5904 116.015 20.315 111.86 26.6688Z" fill="white" fill-opacity="0.64"/>
<path fill-rule="evenodd" clip-rule="evenodd" d="M75.5238 44.3266C70.945 45.774 67.2824 42.5218 64.2754 32.351C61.2168 22.0044 62.547 17.3657 67.125 15.9181C71.7032 14.4708 75.3146 17.5467 78.3732 27.8934C81.3798 38.0652 80.1024 42.8798 75.5238 44.3266ZM71.3266 14.2021C62.2552 14.2021 54.8818 20.7386 54.8818 30.1192C54.8818 39.4996 62.2552 46.0348 71.3266 46.0348C80.3962 46.0348 87.7108 39.4996 87.7108 30.1192C87.7108 20.7386 80.3962 14.2021 71.3266 14.2021Z" fill="white" fill-opacity="0.64"/>
<mask id="mask2_13_294" style="mask-type:alpha" maskUnits="userSpaceOnUse" x="1" y="14" width="52" height="32">
<path d="M1.49121 14.2021H52.2864V45.2474H1.49121V14.2021Z" fill="white"/>
</mask>
<g mask="url(#mask2_13_294)">
<path fill-rule="evenodd" clip-rule="evenodd" d="M52.287 44.0376V45.2474H43.9772V44.0376V41.375V25.5186C43.9772 21.1008 42.3392 18.8024 39.1202 18.8024C35.1992 18.8024 33.2678 22.5536 33.2678 27.0316V41.375V44.0376V45.2474H24.958V44.0376V41.375V25.2762C24.958 21.0408 23.4366 18.8024 20.2182 18.8024C16.3559 18.8024 14.2486 22.6754 14.2486 27.4554V41.375V44.0376V45.2474H5.93914V44.0376V41.375V18.862L1.49121 16.1989V14.989H14.2486V22.9774C15.4781 17.833 18.6961 14.2021 24.256 14.2021C28.9954 14.2021 32.3312 16.8049 33.092 22.3726C34.4386 17.5303 37.6566 14.2021 43.099 14.2021C48.7176 14.2021 52.287 17.7719 52.287 25.3368V41.375V44.0376Z" fill="white" fill-opacity="0.64"/>
</g>
<mask id="mask3_13_294" style="mask-type:alpha" maskUnits="userSpaceOnUse" x="114" y="14" width="32" height="33">
<path d="M114.585 14H145.842V46.0352H114.585V14Z" fill="white"/>
</mask>
<g mask="url(#mask3_13_294)">
<path fill-rule="evenodd" clip-rule="evenodd" d="M127.017 15.6644C131.549 14.33 134.864 16.9883 137.399 25.6884C137.274 26.2962 136.857 26.9692 134.074 27.8268L130.958 28.7328L123.487 30.8016C121.271 22.0178 122.627 16.9562 127.017 15.6644ZM144.416 33.3918C143.096 36.9084 140.668 39.0282 137.466 39.9156C131.191 41.654 125.598 37.548 123.79 31.972L145.828 25.8336C143.374 16.3632 135.408 12.2737 126.759 14.6704C118.111 17.067 112.794 25.308 115.141 34.3676C117.489 43.4282 126.422 47.8002 135.184 45.3718C141.05 43.7456 144.787 39.4488 145.842 33.3918H144.416Z" fill="white" fill-opacity="0.64"/>
</g>
</g>
</g>
<defs>
<clipPath id="clip0_13_294">
<rect width="87" height="30" fill="white" transform="scale(2)"/>
</clipPath>
</defs>
</svg>
