<svg width="164" height="60" viewBox="0 0 164 60" fill="none" xmlns="http://www.w3.org/2000/svg">
<g clip-path="url(#clip0_13_316)">
<g clip-path="url(#clip1_13_316)">
<g clip-path="url(#clip2_13_316)">
<mask id="mask0_13_316" style="mask-type:luminance" maskUnits="userSpaceOnUse" x="0" y="0" width="164" height="60">
<path d="M164 0H0.36377V60H164V0Z" fill="white"/>
</mask>
<g mask="url(#mask0_13_316)">
<path d="M73.3116 17.1699C65.115 17.1699 59.0142 23.4204 59.0142 31.7294C59.0142 40.001 65.1898 46.289 73.3116 46.289C79.001 46.289 83.7916 43.2574 86.1872 38.3918L79.1132 36.5204C77.953 38.429 75.857 39.627 73.3116 39.627C69.6812 39.627 67.211 37.5684 66.5746 33.788H87.4596C87.5346 33.077 87.6092 32.3284 87.6092 31.6172C87.6092 23.7198 81.808 17.1699 73.3116 17.1699ZM66.7618 28.7352C67.6226 25.479 69.9806 23.5328 73.3116 23.5328C76.643 23.5328 79.0756 25.3668 80.1236 28.7352H66.7618Z" fill="white" fill-opacity="0.64"/>
<path d="M30.7563 45.5406H38.2045V31.0558C38.2045 26.5644 40.6749 23.8696 44.3804 23.8696C47.749 23.8696 49.2085 25.9282 49.2085 30.0452V45.5406H56.6567V28.7728C56.6567 21.7362 52.7641 17.2822 46.5135 17.2822C43.2199 17.2822 40.2631 18.5173 38.1671 20.501V8H30.7563" fill="white" fill-opacity="0.64"/>
<path d="M144.2 17.9559H135.591L127.32 30.195V8H119.872V45.5406H127.32V32.3284L136.153 45.5406H145.173L134.843 31.0932L144.2 17.9559Z" fill="white" fill-opacity="0.64"/>
<path d="M161.529 17.8066C157.973 17.8066 155.503 18.8921 153.519 21.3248L152.209 17.9564H147.418V45.541H154.904V31.206C154.904 26.7146 156.551 24.8432 160.78 24.8432H163.999V17.8066H161.529Z" fill="white" fill-opacity="0.64"/>
<path d="M15.0356 39.3274C11.0308 39.3274 7.9617 35.9964 7.9617 31.7294C7.9617 27.4628 10.9934 24.2064 15.0356 24.2064C17.8428 24.2064 20.3504 25.6662 21.5856 28.3236L28.3976 25.9656C26.2642 20.5758 21.2488 17.1699 15.1105 17.1699C6.68914 17.1699 0.36377 23.383 0.36377 31.6548C0.36377 39.9264 6.72658 46.3266 14.9982 46.3266C21.2488 46.3266 26.4138 42.771 28.4724 37.194L21.5482 34.7988C20.5002 37.6058 17.9176 39.3274 15.0356 39.3274Z" fill="white" fill-opacity="0.64"/>
<path d="M104.116 39.3274C100.111 39.3274 97.0416 35.9964 97.0416 31.7294C97.0416 27.4628 100.073 24.2064 104.116 24.2064C106.923 24.2064 109.43 25.6662 110.665 28.3236L117.477 25.9656C115.344 20.5758 110.329 17.1699 104.19 17.1699C95.8064 17.1699 89.481 23.383 89.481 31.6548C89.481 39.9264 95.844 46.3266 104.116 46.3266C110.366 46.3266 115.531 42.771 117.59 37.194L110.665 34.7988C109.617 37.6058 106.998 39.3274 104.116 39.3274Z" fill="white" fill-opacity="0.64"/>
</g>
</g>
</g>
</g>
<defs>
<clipPath id="clip0_13_316">
<rect width="82" height="30" fill="white" transform="scale(2)"/>
</clipPath>
<clipPath id="clip1_13_316">
<rect width="82" height="30" fill="white" transform="scale(2)"/>
</clipPath>
<clipPath id="clip2_13_316">
<rect width="82" height="30" fill="white" transform="scale(2)"/>
</clipPath>
</defs>
</svg>
