<svg width="96" height="96" viewBox="0 0 96 96" fill="none" xmlns="http://www.w3.org/2000/svg">
<g clip-path="url(#clip0_13_587)">
<g clip-path="url(#clip1_13_587)">
<path d="M23 69H29H67H73C75.2092 69 77 67.2092 77 65V27C77 23.6862 74.3138 21 71 21H25C21.6862 21 19 23.6862 19 27V65C19 67.2092 20.7908 69 23 69Z" fill="#E05151" fill-opacity="0.2"/>
<path d="M45.843 61.0555L38.938 70.8377C37.7036 72.5865 38.9542 75.0001 41.0948 75.0001H54.9048C57.0454 75.0001 58.296 72.5865 57.0616 70.8377L50.1566 61.0555C49.1048 59.5655 46.8948 59.5655 45.843 61.0555Z" fill="#E05151" fill-opacity="0.16" stroke="#B84242" stroke-width="1.5" stroke-linecap="round" stroke-linejoin="round"/>
<path d="M29 69H23C20.7908 69 19 67.2092 19 65V27C19 23.6862 21.6862 21 25 21H71C74.3138 21 77 23.6862 77 27V65C77 67.2092 75.2092 69 73 69H67" stroke="#B84242" stroke-width="3" stroke-linecap="round" stroke-linejoin="round"/>
</g>
</g>
<defs>
<clipPath id="clip0_13_587">
<rect width="48" height="48" fill="white" transform="scale(2)"/>
</clipPath>
<clipPath id="clip1_13_587">
<rect width="48" height="48" fill="white" transform="scale(2)"/>
</clipPath>
</defs>
</svg>
