<svg width="96" height="96" viewBox="0 0 96 96" fill="none" xmlns="http://www.w3.org/2000/svg">
<g clip-path="url(#clip0_13_578)">
<g clip-path="url(#clip1_13_578)">
<path d="M75.6148 60.5173C73.7362 64.8589 70.824 68.6749 67.132 71.6325C63.4402 74.5903 59.0808 76.6001 54.434 77.4865C49.7874 78.3729 44.9942 78.1091 40.4728 76.7181C35.9514 75.3271 31.839 72.8513 28.494 69.5063C25.149 66.1613 22.673 62.0487 21.282 57.5273C19.8911 53.0059 19.6273 48.2129 20.5136 43.5661C21.4 38.9193 23.4098 34.5599 26.3676 30.8681C29.3252 27.1763 33.1412 24.2639 37.4828 22.3853" stroke="#42B8AA" stroke-width="3" stroke-linecap="round"/>
<path d="M76 48.9999C77.1046 48.9999 78.0072 48.1035 77.931 47.0015C77.7152 43.8771 76.9944 40.8037 75.7926 37.9021C74.3352 34.3837 72.199 31.1867 69.506 28.4939C66.8132 25.8009 63.6162 23.6647 60.0978 22.2073C57.1962 21.0055 54.1228 20.2847 50.9984 20.0689C49.8966 19.9928 49 20.8953 49 21.9999V44.9999C49 47.2091 50.7908 48.9999 53 48.9999H76Z" fill="#51E0CF" fill-opacity="0.24" stroke="#42B8AA" stroke-width="1.5"/>
</g>
</g>
<defs>
<clipPath id="clip0_13_578">
<rect width="48" height="48" fill="white" transform="scale(2)"/>
</clipPath>
<clipPath id="clip1_13_578">
<rect width="48" height="48" fill="white" transform="scale(2)"/>
</clipPath>
</defs>
</svg>
