<svg width="96" height="96" viewBox="0 0 96 96" fill="none" xmlns="http://www.w3.org/2000/svg">
<g clip-path="url(#clip0_13_617)">
<g clip-path="url(#clip1_13_617)">
<path fill-rule="evenodd" clip-rule="evenodd" d="M21 23.4584H65V52.2722L43 44.5418L51.0666 65.625H21V23.4584ZM58.7888 65.4242C61.6718 64.7658 63.9616 62.5498 64.726 59.7088L61 61.7918L58.7888 65.4242Z" fill="#51E070" fill-opacity="0.2"/>
<path d="M37 65.625H27C23.6862 65.625 21 62.9388 21 59.625V29.4584C21 26.1446 23.6862 23.4584 27 23.4584H59C62.3138 23.4584 65 26.1446 65 29.4584V38.7916" stroke="#42B85C" stroke-width="3" stroke-linecap="round" stroke-linejoin="round"/>
<path d="M43 44.5417L54 73.2917L61 61.7917L73 55.0833L43 44.5417Z" fill="#51E070" fill-opacity="0.2" stroke="#42B85C" stroke-width="1.5" stroke-linejoin="round"/>
</g>
</g>
<defs>
<clipPath id="clip0_13_617">
<rect width="48" height="48" fill="white" transform="scale(2)"/>
</clipPath>
<clipPath id="clip1_13_617">
<rect width="48" height="48" fill="white" transform="scale(2)"/>
</clipPath>
</defs>
</svg>
