<svg width="548" height="64" viewBox="0 0 548 64" fill="none" xmlns="http://www.w3.org/2000/svg">
<g clip-path="url(#clip0_13_184)">
<g clip-path="url(#clip1_13_184)">
<path d="M30.667 53.334C41.7126 53.334 50.667 44.3796 50.667 33.334C50.667 32.2358 50.5784 31.1584 50.4082 30.1082C49.1488 36.5894 43.4422 41.4822 36.593 41.4822C28.82 41.4822 22.5188 35.181 22.5188 27.408C22.5188 20.5588 27.4116 14.8521 33.8926 13.5928C32.8426 13.4225 31.7652 13.334 30.667 13.334C19.6213 13.334 10.667 22.2882 10.667 33.334C10.667 44.3796 19.6213 53.334 30.667 53.334Z" fill="#51E0CF"/>
<path d="M30.667 53.334C41.7126 53.334 50.667 44.3796 50.667 33.334C50.667 32.2358 50.5784 31.1584 50.4082 30.1082C49.1488 36.5894 43.4422 41.4822 36.593 41.4822C28.82 41.4822 22.5188 35.181 22.5188 27.408C22.5188 20.5588 27.4116 14.8521 33.8926 13.5928C32.8426 13.4225 31.7652 13.334 30.667 13.334C19.6213 13.334 10.667 22.2882 10.667 33.334C10.667 44.3796 19.6213 53.334 30.667 53.334Z" fill="url(#paint0_linear_13_184)" fill-opacity="0.4"/>
<path d="M85.344 49.9999L72.48 15.4399H79.344L89.136 43.9999L98.736 15.4399H105.6L92.784 49.9999H85.344ZM118.03 50.5759C110.302 50.5759 105.694 44.9599 105.694 37.5199C105.694 30.0799 110.302 24.4639 118.03 24.4639C125.758 24.4639 130.366 29.8879 130.366 37.9999V39.4399H111.694C112.222 43.3279 114.43 45.8239 118.03 45.8239C120.958 45.8239 122.926 44.5759 123.982 42.3679H129.886C128.254 47.3119 123.982 50.5759 118.03 50.5759ZM111.742 35.1199H124.27C123.646 31.4719 121.486 29.2159 118.03 29.2159C114.574 29.2159 112.414 31.4719 111.742 35.1199ZM132.533 49.9999V25.0399H138.389V29.5039C140.069 25.9999 142.757 24.7519 145.925 24.7519H147.893V30.3199H145.685C141.461 30.3199 138.581 32.0959 138.581 37.9039V49.9999H132.533ZM156.985 49.9999L147.481 25.0399H153.961L160.441 44.3359L166.777 25.0399H173.305L163.801 49.9999H156.985ZM185.489 50.5759C177.761 50.5759 173.153 44.9599 173.153 37.5199C173.153 30.0799 177.761 24.4639 185.489 24.4639C193.217 24.4639 197.825 29.8879 197.825 37.9999V39.4399H179.153C179.681 43.3279 181.889 45.8239 185.489 45.8239C188.417 45.8239 190.385 44.5759 191.441 42.3679H197.345C195.713 47.3119 191.441 50.5759 185.489 50.5759ZM179.201 35.1199H191.729C191.105 31.4719 188.945 29.2159 185.489 29.2159C182.033 29.2159 179.873 31.4719 179.201 35.1199Z" fill="white"/>
</g>
</g>
<defs>
<linearGradient id="paint0_linear_13_184" x1="30.667" y1="13.334" x2="30.667" y2="43.8572" gradientUnits="userSpaceOnUse">
<stop stop-color="white"/>
<stop offset="1" stop-color="white" stop-opacity="0"/>
</linearGradient>
<clipPath id="clip0_13_184">
<rect width="100" height="32" fill="white" transform="scale(2)"/>
</clipPath>
<clipPath id="clip1_13_184">
<rect width="100" height="32" fill="white" transform="scale(2)"/>
</clipPath>
</defs>
</svg>
