<svg width="200" height="64" viewBox="0 0 200 64" fill="none" xmlns="http://www.w3.org/2000/svg">
<g clip-path="url(#clip0_13_137)">
<g clip-path="url(#clip1_13_137)">
<path d="M30.667 53.334C41.7126 53.334 50.667 44.3796 50.667 33.334C50.667 32.2358 50.5784 31.1584 50.4082 30.1082C49.1488 36.5894 43.4422 41.4822 36.593 41.4822C28.82 41.4822 22.5188 35.181 22.5188 27.408C22.5188 20.5588 27.4116 14.8521 33.8926 13.5928C32.8426 13.4225 31.7652 13.334 30.667 13.334C19.6213 13.334 10.667 22.2882 10.667 33.334C10.667 44.3796 19.6213 53.334 30.667 53.334Z" fill="#51E0CF"/>
<path d="M30.667 53.334C41.7126 53.334 50.667 44.3796 50.667 33.334C50.667 32.2358 50.5784 31.1584 50.4082 30.1082C49.1488 36.5894 43.4422 41.4822 36.593 41.4822C28.82 41.4822 22.5188 35.181 22.5188 27.408C22.5188 20.5588 27.4116 14.8521 33.8926 13.5928C32.8426 13.4225 31.7652 13.334 30.667 13.334C19.6213 13.334 10.667 22.2882 10.667 33.334C10.667 44.3796 19.6213 53.334 30.667 53.334Z" fill="url(#paint0_linear_13_137)" fill-opacity="0.4"/>
<path d="M85.344 50.0004L72.48 15.4404H79.344L89.136 44.0004L98.736 15.4404H105.6L92.784 50.0004H85.344ZM118.03 50.5764C110.302 50.5764 105.694 44.9604 105.694 37.5204C105.694 30.0804 110.302 24.4644 118.03 24.4644C125.758 24.4644 130.366 29.8884 130.366 38.0004V39.4404H111.694C112.222 43.3284 114.43 45.8244 118.03 45.8244C120.958 45.8244 122.926 44.5764 123.982 42.3684H129.886C128.254 47.3124 123.982 50.5764 118.03 50.5764ZM111.742 35.1204H124.27C123.646 31.4724 121.486 29.2164 118.03 29.2164C114.574 29.2164 112.414 31.4724 111.742 35.1204ZM132.533 50.0004V25.0404H138.389V29.5044C140.069 26.0004 142.757 24.7524 145.925 24.7524H147.893V30.3204H145.685C141.461 30.3204 138.581 32.0964 138.581 37.9044V50.0004H132.533ZM156.985 50.0004L147.481 25.0404H153.961L160.441 44.3364L166.777 25.0404H173.305L163.801 50.0004H156.985ZM185.489 50.5764C177.761 50.5764 173.153 44.9604 173.153 37.5204C173.153 30.0804 177.761 24.4644 185.489 24.4644C193.217 24.4644 197.825 29.8884 197.825 38.0004V39.4404H179.153C179.681 43.3284 181.889 45.8244 185.489 45.8244C188.417 45.8244 190.385 44.5764 191.441 42.3684H197.345C195.713 47.3124 191.441 50.5764 185.489 50.5764ZM179.201 35.1204H191.729C191.105 31.4724 188.945 29.2164 185.489 29.2164C182.033 29.2164 179.873 31.4724 179.201 35.1204Z" fill="white"/>
</g>
</g>
<defs>
<linearGradient id="paint0_linear_13_137" x1="30.667" y1="13.334" x2="30.667" y2="43.8572" gradientUnits="userSpaceOnUse">
<stop stop-color="white"/>
<stop offset="1" stop-color="white" stop-opacity="0"/>
</linearGradient>
<clipPath id="clip0_13_137">
<rect width="100" height="32" fill="white" transform="scale(2)"/>
</clipPath>
<clipPath id="clip1_13_137">
<rect width="100" height="32" fill="white" transform="scale(2)"/>
</clipPath>
</defs>
</svg>
