<svg width="2880" height="17001" viewBox="0 0 2880 17001" fill="none" xmlns="http://www.w3.org/2000/svg">
<g clip-path="url(#clip0_13_3)">
<mask id="mask0_13_3" style="mask-type:luminance" maskUnits="userSpaceOnUse" x="740" y="0" width="1400" height="972">
<path d="M2140 0H740V972H2140V0Z" fill="white"/>
</mask>
<g mask="url(#mask0_13_3)">
<g opacity="0.72">
<path d="M1057.02 214.306C1057.46 215.328 1056.52 216.316 1055.54 215.856C1055.33 215.754 1055.17 215.584 1055.07 215.362C1054.61 214.34 1055.58 213.354 1056.55 213.812C1056.76 213.916 1056.93 214.086 1057.02 214.306Z" fill="white" fill-opacity="0.16"/>
<path d="M1840.74 155.201C1841.19 156.222 1840.24 157.209 1839.26 156.75C1839.05 156.648 1838.88 156.477 1838.78 156.256C1838.34 155.235 1839.29 154.247 1840.27 154.707C1840.48 154.809 1840.65 154.979 1840.74 155.201Z" fill="white" fill-opacity="0.16"/>
<path d="M1671.56 252.624C1672 253.644 1671.06 254.632 1670.08 254.172C1669.87 254.07 1669.7 253.9 1669.61 253.678C1669.15 252.658 1670.11 251.67 1671.09 252.13C1671.3 252.232 1671.46 252.402 1671.56 252.624Z" fill="white" fill-opacity="0.16"/>
<path d="M1441.77 720.716C1442.22 721.738 1441.26 722.726 1440.29 722.266C1440.07 722.164 1439.91 721.994 1439.81 721.772C1439.37 720.75 1440.32 719.764 1441.3 720.224C1441.51 720.326 1441.67 720.496 1441.77 720.716Z" fill="white" fill-opacity="0.16"/>
<path d="M1583.48 746.92C1583.94 747.938 1582.98 748.94 1582 748.464C1581.79 748.362 1581.63 748.194 1581.53 747.972C1581.09 746.954 1582.03 745.968 1583.01 746.428C1583.22 746.53 1583.38 746.698 1583.48 746.92Z" fill="white" fill-opacity="0.16"/>
<path d="M1601.74 511.784C1602.18 512.804 1601.24 513.792 1600.26 513.332C1600.05 513.23 1599.89 513.06 1599.79 512.838C1599.33 511.818 1600.29 510.83 1601.27 511.29C1601.48 511.392 1601.64 511.562 1601.74 511.784Z" fill="white" fill-opacity="0.16"/>
<path d="M1857.85 261.622C1858.3 262.644 1857.34 263.632 1856.36 263.172C1856.15 263.07 1855.99 262.898 1855.89 262.678C1855.45 261.656 1856.4 260.668 1857.37 261.128C1857.59 261.23 1857.75 261.4 1857.85 261.622Z" fill="white" fill-opacity="0.16"/>
<path d="M1302.5 125.822C1302.94 126.843 1301.99 127.83 1301.02 127.371C1300.8 127.269 1300.64 127.098 1300.54 126.877C1300.09 125.856 1301.05 124.868 1302.02 125.328C1302.24 125.43 1302.4 125.6 1302.5 125.822Z" fill="white" fill-opacity="0.16"/>
<path d="M1606.1 50.2961C1606.54 51.3177 1605.6 52.3051 1604.62 51.8455C1604.41 51.7433 1604.25 51.5731 1604.15 51.3517C1603.69 50.3303 1604.65 49.3427 1605.63 49.8025C1605.84 49.9047 1606.01 50.0749 1606.1 50.2961Z" fill="white" fill-opacity="0.4"/>
<path d="M1318.08 848.235C1318.54 849.257 1317.58 850.245 1316.6 849.785C1316.39 849.683 1316.23 849.513 1316.13 849.291C1315.69 848.269 1316.64 847.281 1317.61 847.741C1317.82 847.843 1317.99 848.013 1318.08 848.235Z" fill="white" fill-opacity="0.16"/>
<path d="M1586.47 932.349C1586.91 933.371 1585.97 934.357 1584.99 933.899C1584.78 933.797 1584.61 933.625 1584.52 933.405C1584.06 932.383 1585.02 931.395 1586 931.855C1586.21 931.957 1586.37 932.127 1586.47 932.349Z" fill="white" fill-opacity="0.4"/>
<path d="M955.898 339.009C956.338 340.031 955.39 341.017 954.412 340.559C954.198 340.457 954.036 340.285 953.938 340.065C953.496 339.043 954.444 338.055 955.424 338.515C955.636 338.617 955.8 338.787 955.898 339.009Z" fill="white" fill-opacity="0.4"/>
<path d="M1085.98 384.143C1086.44 385.163 1085.48 386.151 1084.5 385.691C1084.29 385.589 1084.12 385.419 1084.03 385.197C1083.59 384.177 1084.53 383.189 1085.51 383.649C1085.72 383.751 1085.88 383.921 1085.98 384.143Z" fill="white" fill-opacity="0.16"/>
<path d="M1104.27 648.183C1104.71 649.203 1103.76 650.191 1102.78 649.731C1102.57 649.629 1102.41 649.459 1102.31 649.237C1101.87 648.217 1102.81 647.229 1103.79 647.689C1104.01 647.791 1104.17 647.961 1104.27 648.183Z" fill="white" fill-opacity="0.16"/>
<path d="M1089 527.695C1089.44 528.717 1088.49 529.705 1087.51 529.245C1087.3 529.143 1087.14 528.973 1087.04 528.751C1086.59 527.729 1087.55 526.743 1088.52 527.201C1088.74 527.305 1088.9 527.475 1089 527.695Z" fill="white" fill-opacity="0.16"/>
<path d="M1285.14 40.7992C1285.58 41.8206 1284.64 42.808 1283.66 42.3484C1283.45 42.2462 1283.29 42.076 1283.19 41.8546C1282.73 40.8332 1283.69 39.8458 1284.67 40.3054C1284.88 40.4076 1285.05 40.5778 1285.14 40.7992Z" fill="white" fill-opacity="0.4"/>
<path d="M1582.74 380.544C1583.18 381.564 1582.23 382.552 1581.25 382.092C1581.04 381.99 1580.87 381.82 1580.78 381.598C1580.34 380.578 1581.28 379.59 1582.26 380.05C1582.47 380.152 1582.64 380.322 1582.74 380.544Z" fill="white" fill-opacity="0.16"/>
<path d="M1509.4 471.71C1509.85 472.732 1508.9 473.72 1507.92 473.26C1507.71 473.158 1507.54 472.988 1507.45 472.766C1507 471.744 1507.95 470.756 1508.93 471.216C1509.14 471.318 1509.31 471.488 1509.4 471.71Z" fill="white" fill-opacity="0.4"/>
<path d="M1218.42 638.596C1219.4 638.138 1220.35 639.122 1219.91 640.142C1219.81 640.362 1219.65 640.532 1219.44 640.634C1218.46 641.11 1217.51 640.108 1217.95 639.088C1218.05 638.868 1218.21 638.698 1218.42 638.596Z" fill="white" fill-opacity="0.4"/>
<path d="M1310.22 296.862C1310.66 297.882 1309.71 298.87 1308.74 298.41C1308.53 298.308 1308.36 298.138 1308.26 297.916C1307.81 296.896 1308.77 295.908 1309.75 296.368C1309.96 296.47 1310.12 296.64 1310.22 296.862Z" fill="white" fill-opacity="0.16"/>
<path d="M1998.85 198.063C1999.29 199.084 1998.34 200.072 1997.37 199.612C1997.15 199.51 1996.99 199.34 1996.89 199.118C1996.44 198.097 1997.4 197.109 1998.38 197.569C1998.59 197.671 1998.75 197.842 1998.85 198.063Z" fill="white" fill-opacity="0.16"/>
<path d="M1567.81 771.422C1568.25 772.444 1567.31 773.43 1566.33 772.97C1566.12 772.868 1565.96 772.698 1565.86 772.478C1565.4 771.456 1566.36 770.468 1567.34 770.928C1567.55 771.03 1567.71 771.2 1567.81 771.422Z" fill="white" fill-opacity="0.16"/>
<path d="M951.532 952.813C951.972 953.833 951.028 954.817 950.05 954.359C949.838 954.257 949.676 954.087 949.578 953.867C949.122 952.847 950.082 951.845 951.06 952.321C951.272 952.423 951.434 952.593 951.532 952.813Z" fill="white" fill-opacity="0.16"/>
<path d="M1840.98 333.435C1841.42 334.455 1840.47 335.443 1839.49 334.983C1839.28 334.881 1839.12 334.711 1839.02 334.489C1838.58 333.469 1839.53 332.481 1840.51 332.941C1840.72 333.043 1840.88 333.213 1840.98 333.435Z" fill="white" fill-opacity="0.16"/>
<path d="M1972.83 899.769C1973.27 900.789 1972.33 901.773 1971.35 901.315C1971.14 901.213 1970.98 901.043 1970.88 900.823C1970.42 899.803 1971.38 898.801 1972.36 899.277C1972.57 899.379 1972.74 899.549 1972.83 899.769Z" fill="white" fill-opacity="0.16"/>
<path d="M1054.43 866.08C1054.89 867.102 1053.93 868.09 1052.95 867.63C1052.74 867.528 1052.58 867.358 1052.48 867.136C1052.04 866.114 1052.98 865.126 1053.96 865.586C1054.17 865.688 1054.33 865.86 1054.43 866.08Z" fill="white" fill-opacity="0.4"/>
<path d="M742.071 841.416C742.512 842.438 741.564 843.426 740.585 842.966C740.372 842.864 740.209 842.694 740.111 842.472C739.67 841.45 740.617 840.464 741.597 840.924C741.809 841.026 741.973 841.196 742.071 841.416Z" fill="white" fill-opacity="0.16"/>
<path d="M1063.6 756.931C1064.04 757.951 1063.09 758.939 1062.11 758.479C1061.9 758.377 1061.73 758.207 1061.64 757.985C1061.19 756.965 1062.14 755.977 1063.12 756.437C1063.33 756.539 1063.5 756.709 1063.6 756.931Z" fill="white" fill-opacity="0.16"/>
<path d="M1723.14 898.25C1723.58 899.272 1722.64 900.26 1721.66 899.8C1721.44 899.698 1721.28 899.528 1721.18 899.306C1720.74 898.284 1721.69 897.296 1722.67 897.756C1722.88 897.858 1723.04 898.028 1723.14 898.25Z" fill="white" fill-opacity="0.16"/>
<path d="M1777.15 1.26983C1777.6 2.29131 1776.64 3.27875 1775.67 2.81909C1775.45 2.71693 1775.29 2.54669 1775.19 2.32537C1774.75 1.30389 1775.7 0.31644 1776.68 0.77611C1776.89 0.87826 1777.05 1.04851 1777.15 1.26983Z" fill="white" fill-opacity="0.16"/>
<path d="M1139.18 443.584C1139.62 444.604 1138.67 445.592 1137.69 445.132C1137.48 445.03 1137.32 444.86 1137.22 444.638C1136.77 443.618 1137.73 442.63 1138.7 443.09C1138.92 443.192 1139.08 443.362 1139.18 443.584Z" fill="white" fill-opacity="0.16"/>
<path d="M1681.67 775.727C1682.11 776.749 1681.16 777.737 1680.18 777.277C1679.97 777.175 1679.81 777.005 1679.71 776.783C1679.27 775.761 1680.22 774.775 1681.2 775.235C1681.41 775.337 1681.57 775.507 1681.67 775.727Z" fill="white" fill-opacity="0.16"/>
<path d="M1527.78 591.349C1527.34 592.371 1528.28 593.357 1529.26 592.899C1529.48 592.797 1529.64 592.625 1529.74 592.405C1530.18 591.383 1529.23 590.395 1528.25 590.855C1528.04 590.957 1527.88 591.127 1527.78 591.349Z" fill="white" fill-opacity="0.16"/>
<path d="M1399.04 157.196C1398.6 158.217 1399.55 159.205 1400.53 158.745C1400.74 158.643 1400.9 158.472 1401 158.251C1401.45 157.23 1400.49 156.242 1399.52 156.702C1399.31 156.804 1399.14 156.974 1399.04 157.196Z" fill="white" fill-opacity="0.16"/>
<path d="M2018.7 118.496C2018.26 119.518 2019.21 120.505 2020.19 120.046C2020.4 119.943 2020.57 119.773 2020.66 119.552C2021.1 118.53 2020.16 117.543 2019.18 118.003C2018.97 118.105 2018.8 118.275 2018.7 118.496Z" fill="white" fill-opacity="0.16"/>
<path d="M1307.2 352.506C1306.76 353.528 1307.71 354.516 1308.68 354.056C1308.89 353.954 1309.06 353.784 1309.16 353.562C1309.61 352.54 1308.65 351.554 1307.67 352.012C1307.46 352.116 1307.3 352.286 1307.2 352.506Z" fill="white" fill-opacity="0.16"/>
<path d="M1183.51 722.474C1184.49 722.948 1185.44 721.948 1184.99 720.928C1184.9 720.708 1184.73 720.538 1184.52 720.436C1183.54 719.978 1182.59 720.962 1183.03 721.982C1183.13 722.202 1183.3 722.372 1183.51 722.474Z" fill="white" fill-opacity="0.16"/>
<path d="M988.846 379.378C988.406 380.4 989.352 381.388 990.328 380.928C990.54 380.826 990.702 380.656 990.8 380.434C991.256 379.412 990.296 378.426 989.318 378.884C989.106 378.986 988.944 379.158 988.846 379.378Z" fill="white" fill-opacity="0.16"/>
<path d="M1148.04 198.066C1147.6 199.087 1148.55 200.075 1149.53 199.615C1149.74 199.513 1149.91 199.343 1150 199.121C1150.44 198.1 1149.5 197.112 1148.52 197.572C1148.31 197.674 1148.14 197.844 1148.04 198.066Z" fill="white" fill-opacity="0.16"/>
<path d="M881.942 477.681C881.486 478.699 882.447 479.701 883.424 479.225C883.636 479.125 883.799 478.955 883.897 478.733C884.336 477.715 883.392 476.729 882.415 477.189C882.203 477.291 882.04 477.461 881.942 477.681Z" fill="white" fill-opacity="0.16"/>
<path d="M958.29 524.462C957.834 525.484 958.794 526.472 959.772 526.012C959.984 525.91 960.146 525.74 960.244 525.518C960.684 524.496 959.74 523.508 958.762 523.968C958.55 524.07 958.388 524.24 958.29 524.462Z" fill="white" fill-opacity="0.4"/>
<path d="M1340.49 472.794C1340.05 473.816 1340.99 474.802 1341.97 474.342C1342.18 474.24 1342.34 474.07 1342.44 473.85C1342.9 472.828 1341.94 471.84 1340.96 472.3C1340.75 472.402 1340.59 472.572 1340.49 472.794Z" fill="white" fill-opacity="0.16"/>
<path d="M790.295 716.383C789.856 717.405 790.8 718.391 791.777 717.931C791.989 717.829 792.152 717.659 792.25 717.439C792.706 716.417 791.745 715.429 790.768 715.889C790.556 715.991 790.393 716.161 790.295 716.383Z" fill="white" fill-opacity="0.16"/>
<path d="M1198.9 507.443C1198.46 508.465 1199.4 509.453 1200.38 508.993C1200.59 508.891 1200.75 508.721 1200.85 508.499C1201.31 507.477 1200.35 506.489 1199.37 506.949C1199.16 507.051 1199 507.221 1198.9 507.443Z" fill="white" fill-opacity="0.16"/>
<path d="M1844.15 945.99C1843.71 947.012 1844.66 947.998 1845.64 947.54C1845.85 947.438 1846.01 947.266 1846.11 947.046C1846.55 946.024 1845.61 945.036 1844.63 945.496C1844.41 945.598 1844.25 945.768 1844.15 945.99Z" fill="white" fill-opacity="0.16"/>
<path d="M1729.27 814.141C1728.83 815.163 1729.78 816.151 1730.76 815.691C1730.97 815.589 1731.13 815.419 1731.23 815.197C1731.68 814.175 1730.72 813.187 1729.75 813.647C1729.53 813.749 1729.37 813.921 1729.27 814.141Z" fill="white" fill-opacity="0.16"/>
<path d="M1935.09 813.498C1934.65 814.52 1935.6 815.506 1936.58 815.046C1936.79 814.944 1936.95 814.774 1937.05 814.554C1937.49 813.532 1936.54 812.544 1935.56 813.004C1935.35 813.106 1935.19 813.276 1935.09 813.498Z" fill="white" fill-opacity="0.16"/>
<path d="M1576.92 148.511C1576.48 149.532 1577.43 150.52 1578.41 150.06C1578.62 149.958 1578.78 149.788 1578.88 149.566C1579.32 148.545 1578.38 147.558 1577.4 148.017C1577.18 148.119 1577.02 148.29 1576.92 148.511Z" fill="white" fill-opacity="0.16"/>
<path d="M1948.88 93.4886C1948.44 94.51 1949.39 95.4974 1950.37 95.0378C1950.58 94.9356 1950.74 94.7654 1950.84 94.544C1951.28 93.5226 1950.34 92.5352 1949.36 92.9948C1949.14 93.097 1948.98 93.2672 1948.88 93.4886Z" fill="white" fill-opacity="0.16"/>
<path d="M2097.25 27.5627C2096.81 28.5843 2097.76 29.5717 2098.74 29.1121C2098.95 29.0099 2099.11 28.8397 2099.21 28.6183C2099.65 27.5969 2098.71 26.6093 2097.73 27.0691C2097.51 27.1713 2097.35 27.3415 2097.25 27.5627Z" fill="white" fill-opacity="0.4"/>
<path d="M1835.43 82.1234C1834.99 83.1448 1835.94 84.1322 1836.91 83.6726C1837.13 83.5704 1837.29 83.4002 1837.39 83.1788C1837.83 82.1574 1836.88 81.17 1835.9 81.6296C1835.69 81.7318 1835.53 81.902 1835.43 82.1234Z" fill="white" fill-opacity="0.4"/>
<path d="M1924.88 2.55597C1924.44 3.57745 1925.39 4.56489 1926.37 4.10521C1926.58 4.00307 1926.74 3.83281 1926.84 3.61149C1927.29 2.59001 1926.33 1.60257 1925.36 2.06225C1925.14 2.16439 1924.98 2.33463 1924.88 2.55597Z" fill="white" fill-opacity="0.16"/>
<path d="M1327.04 780.035C1326.6 781.057 1327.55 782.045 1328.53 781.585C1328.74 781.483 1328.9 781.313 1329 781.091C1329.45 780.069 1328.49 779.083 1327.52 779.541C1327.3 779.645 1327.14 779.815 1327.04 780.035Z" fill="white" fill-opacity="0.16"/>
<path d="M1189.25 337.29C1188.81 338.312 1189.76 339.3 1190.73 338.84C1190.94 338.738 1191.11 338.568 1191.21 338.346C1191.66 337.324 1190.7 336.336 1189.72 336.796C1189.51 336.898 1189.35 337.07 1189.25 337.29Z" fill="white" fill-opacity="0.16"/>
<path d="M1915.93 429.943C1916.38 430.963 1915.42 431.951 1914.45 431.491C1914.23 431.389 1914.07 431.219 1913.97 430.997C1913.53 429.977 1914.48 428.989 1915.46 429.449C1915.67 429.551 1915.83 429.721 1915.93 429.943Z" fill="white" fill-opacity="0.16"/>
<path d="M1814.07 648.183C1814.53 649.203 1813.57 650.191 1812.59 649.731C1812.38 649.629 1812.21 649.459 1812.12 649.237C1811.68 648.217 1812.62 647.229 1813.6 647.689C1813.81 647.791 1813.97 647.961 1814.07 648.183Z" fill="white" fill-opacity="0.4"/>
<path d="M1760.66 277.082C1761.12 278.104 1760.15 279.092 1759.18 278.632C1758.97 278.53 1758.8 278.36 1758.71 278.138C1758.27 277.116 1759.21 276.128 1760.19 276.588C1760.4 276.69 1760.56 276.862 1760.66 277.082Z" fill="white" fill-opacity="0.4"/>
<path d="M1803.13 343.502C1803.57 344.524 1802.62 345.51 1801.65 345.052C1801.44 344.95 1801.27 344.778 1801.18 344.558C1800.72 343.536 1801.68 342.548 1802.66 343.008C1802.87 343.11 1803.03 343.28 1803.13 343.502Z" fill="white" fill-opacity="0.16"/>
<path d="M2049.94 196.953C2050.38 197.975 2049.43 198.962 2048.45 198.503C2048.24 198.401 2048.08 198.23 2047.98 198.009C2047.53 196.987 2048.49 196 2049.46 196.46C2049.68 196.562 2049.84 196.732 2049.94 196.953Z" fill="white" fill-opacity="0.16"/>
<path d="M1682.47 513.038C1682.91 514.06 1681.97 515.046 1680.99 514.586C1680.78 514.484 1680.61 514.314 1680.52 514.094C1680.06 513.072 1681.02 512.084 1682 512.544C1682.21 512.646 1682.37 512.816 1682.47 513.038Z" fill="white" fill-opacity="0.16"/>
<path d="M1770.6 580.827C1771.05 581.849 1770.09 582.837 1769.11 582.377C1768.9 582.275 1768.74 582.105 1768.64 581.883C1768.2 580.861 1769.15 579.875 1770.12 580.333C1770.34 580.437 1770.5 580.607 1770.6 580.827Z" fill="white" fill-opacity="0.16"/>
<path d="M1943.66 595.517C1943.2 596.537 1944.16 597.525 1945.14 597.065C1945.35 596.963 1945.51 596.793 1945.61 596.571C1946.05 595.551 1945.1 594.563 1944.13 595.023C1943.92 595.125 1943.75 595.295 1943.66 595.517Z" fill="white" fill-opacity="0.4"/>
<path d="M1707.01 624.471C1706.57 625.493 1707.52 626.479 1708.5 626.021C1708.71 625.919 1708.87 625.747 1708.97 625.527C1709.41 624.505 1708.46 623.517 1707.48 623.977C1707.27 624.079 1707.11 624.249 1707.01 624.471Z" fill="white" fill-opacity="0.16"/>
<path d="M2115.41 302.634C2114.95 303.654 2115.91 304.656 2116.89 304.18C2117.1 304.078 2117.26 303.908 2117.36 303.688C2117.8 302.668 2116.86 301.684 2115.88 302.142C2115.67 302.244 2115.51 302.414 2115.41 302.634Z" fill="white" fill-opacity="0.16"/>
<path d="M1851.39 504.964C1850.95 505.984 1851.9 506.972 1852.87 506.512C1853.09 506.41 1853.25 506.24 1853.35 506.018C1853.8 504.998 1852.84 504.01 1851.86 504.47C1851.65 504.572 1851.49 504.742 1851.39 504.964Z" fill="white" fill-opacity="0.16"/>
<path d="M1978.85 455.271C1978.4 456.293 1979.36 457.279 1980.33 456.821C1980.55 456.719 1980.71 456.547 1980.81 456.327C1981.25 455.305 1980.3 454.317 1979.32 454.777C1979.11 454.879 1978.95 455.049 1978.85 455.271Z" fill="white" fill-opacity="0.16"/>
<path d="M1737.24 464.048C1736.8 465.066 1737.75 466.052 1738.72 465.592C1738.94 465.49 1739.1 465.322 1739.2 465.1C1739.65 464.082 1738.69 463.08 1737.71 463.556C1737.5 463.658 1737.34 463.826 1737.24 464.048Z" fill="white" fill-opacity="0.16"/>
<path d="M1237.59 416.303C1237.14 417.323 1238.1 418.311 1239.07 417.851C1239.28 417.749 1239.45 417.579 1239.55 417.357C1239.99 416.337 1239.04 415.349 1238.06 415.809C1237.85 415.911 1237.69 416.081 1237.59 416.303Z" fill="white" fill-opacity="0.16"/>
<path d="M1684.88 84.3959C1684.42 85.4173 1685.38 86.4049 1686.36 85.9451C1686.57 85.8429 1686.73 85.6727 1686.83 85.4515C1687.27 84.4299 1686.33 83.4425 1685.35 83.9021C1685.14 84.0043 1684.97 84.1745 1684.88 84.3959Z" fill="white" fill-opacity="0.16"/>
<path d="M1473.24 95.7629C1472.78 96.7845 1473.74 97.7719 1474.72 97.3121C1474.93 97.2101 1475.09 97.0399 1475.19 96.8185C1475.63 95.7969 1474.69 94.8095 1473.71 95.2693C1473.5 95.3713 1473.34 95.5417 1473.24 95.7629Z" fill="white" fill-opacity="0.4"/>
<path d="M1676.15 168.509C1675.7 169.531 1676.66 170.518 1677.64 170.058C1677.85 169.956 1678.01 169.786 1678.11 169.565C1678.55 168.543 1677.6 167.556 1676.63 168.015C1676.41 168.117 1676.25 168.288 1676.15 168.509Z" fill="white" fill-opacity="0.16"/>
<path d="M1421.23 350.034C1420.77 351.056 1421.73 352.042 1422.71 351.582C1422.92 351.48 1423.08 351.31 1423.18 351.09C1423.62 350.068 1422.68 349.08 1421.7 349.54C1421.49 349.642 1421.32 349.812 1421.23 350.034Z" fill="white" fill-opacity="0.16"/>
<path d="M1673.7 354.767C1673.24 355.789 1674.2 356.775 1675.18 356.317C1675.39 356.213 1675.55 356.043 1675.65 355.823C1676.09 354.801 1675.15 353.813 1674.17 354.273C1673.96 354.375 1673.8 354.545 1673.7 354.767Z" fill="white" fill-opacity="0.16"/>
<path d="M1526.76 217.628C1526.32 218.648 1527.26 219.636 1528.24 219.176C1528.46 219.074 1528.62 218.904 1528.72 218.684C1529.16 217.662 1528.21 216.674 1527.23 217.134C1527.02 217.236 1526.86 217.406 1526.76 217.628Z" fill="white" fill-opacity="0.16"/>
<path d="M2044.89 780.09C2044.45 781.112 2045.39 782.1 2046.37 781.64C2046.58 781.538 2046.75 781.366 2046.84 781.146C2047.3 780.124 2046.34 779.136 2045.36 779.596C2045.15 779.698 2044.99 779.868 2044.89 780.09Z" fill="white" fill-opacity="0.16"/>
<path d="M2119.08 718.655C2118.62 719.677 2119.58 720.665 2120.56 720.205C2120.77 720.103 2120.93 719.933 2121.03 719.711C2121.47 718.689 2120.53 717.703 2119.55 718.161C2119.34 718.263 2119.18 718.435 2119.08 718.655Z" fill="white" fill-opacity="0.4"/>
<path d="M2121.26 387.008C2120.81 388.03 2121.77 389.016 2122.74 388.556C2122.96 388.454 2123.12 388.284 2123.22 388.064C2123.66 387.042 2122.71 386.054 2121.73 386.514C2121.52 386.616 2121.36 386.786 2121.26 387.008Z" fill="white" fill-opacity="0.4"/>
<path d="M1174.88 258.231C1174.44 259.251 1175.39 260.239 1176.37 259.779C1176.58 259.677 1176.75 259.507 1176.84 259.285C1177.28 258.265 1176.34 257.277 1175.36 257.737C1175.15 257.839 1174.98 258.009 1174.88 258.231Z" fill="white" fill-opacity="0.4"/>
<path d="M921.208 795.95C920.767 796.972 921.714 797.958 922.694 797.5C922.906 797.398 923.069 797.226 923.167 797.006C923.608 795.984 922.661 794.996 921.682 795.456C921.469 795.558 921.306 795.728 921.208 795.95Z" fill="white" fill-opacity="0.16"/>
<path d="M1450.95 909.66C1450.51 910.678 1451.45 911.662 1452.43 911.204C1452.64 911.102 1452.8 910.932 1452.9 910.712C1453.36 909.694 1452.4 908.692 1451.42 909.166C1451.21 909.268 1451.05 909.438 1450.95 909.66Z" fill="white" fill-opacity="0.16"/>
<path d="M1216.7 951.836C1216.26 952.858 1217.21 953.846 1218.19 953.386C1218.4 953.284 1218.57 953.114 1218.66 952.892C1219.1 951.87 1218.16 950.884 1217.18 951.344C1216.96 951.446 1216.8 951.616 1216.7 951.836Z" fill="white" fill-opacity="0.16"/>
<path d="M1215.77 861.876C1215.32 862.898 1216.28 863.886 1217.26 863.426C1217.47 863.324 1217.63 863.154 1217.73 862.932C1218.17 861.91 1217.22 860.924 1216.25 861.384C1216.04 861.486 1215.87 861.656 1215.77 861.876Z" fill="white" fill-opacity="0.16"/>
<path d="M1577.97 845.964C1577.51 846.984 1578.47 847.972 1579.45 847.512C1579.66 847.41 1579.82 847.24 1579.92 847.018C1580.36 845.998 1579.42 845.01 1578.44 845.47C1578.23 845.572 1578.07 845.742 1577.97 845.964Z" fill="white" fill-opacity="0.16"/>
<path d="M1017.21 643.636C1016.77 644.658 1017.72 645.646 1018.7 645.186C1018.91 645.084 1019.07 644.914 1019.17 644.692C1019.61 643.67 1018.66 642.684 1017.68 643.142C1017.47 643.244 1017.31 643.416 1017.21 643.636Z" fill="white" fill-opacity="0.16"/>
<path d="M903.14 672.193C902.7 673.215 903.645 674.203 904.622 673.743C904.834 673.641 904.997 673.471 905.094 673.249C905.55 672.227 904.59 671.241 903.612 671.699C903.401 671.801 903.238 671.973 903.14 672.193Z" fill="white" fill-opacity="0.16"/>
</g>
</g>
</g>
<defs>
<clipPath id="clip0_13_3">
<rect width="700" height="486" fill="white" transform="matrix(2 0 0 2 740 0)"/>
</clipPath>
</defs>
</svg>
